<svg width="347" height="347" viewBox="0 0 347 347" fill="none" xmlns="http://www.w3.org/2000/svg">
<path fill-rule="evenodd" clip-rule="evenodd" d="M346 9.67675V0.160156C346 0.160156 346.235 3.86301 346 9.67675Z" fill="url(#paint0_linear_1_28)"/>
<path d="M346 0.160156H0V179.16C6.33333 148.327 40.6 85.0602 127 78.6602H285.5C285.5 78.6602 321 78.6602 334.5 55.1602C343.371 39.7173 345.549 20.8197 346 9.67675V0.160156Z" fill="url(#paint1_linear_1_28)"/>
<path d="M13.5 249.16V346.16H23.7379C35.4941 345.481 55.1346 342.237 70.5 329.16C85.0476 316.779 89.0567 298.65 90 286.634V274.16V244.66C90 244.66 90 226.16 101.5 213.66C113 201.16 127.5 202.16 127.5 202.16H200.5H209.761C222.865 201.635 246.7 198.66 260 184.66C261.613 182.962 263.071 181.116 264.389 179.16C273.325 165.896 275.811 147.554 276.426 135.772L276.5 124.16H134H133.24C126.68 124.226 79.1 126.019 47.5 163.66C43.0861 168.918 39.2451 174.108 35.9029 179.16C13.8544 212.486 13.5 237.16 13.5 249.16Z" fill="url(#paint2_linear_1_28)"/>
<defs>
<linearGradient id="paint0_linear_1_28" x1="2.17986e-06" y1="3" x2="213.5" y2="237" gradientUnits="userSpaceOnUse">
<stop stop-color="#B2E655"/>
<stop offset="1" stop-color="#77C61C"/>
</linearGradient>
<linearGradient id="paint1_linear_1_28" x1="2.17986e-06" y1="3" x2="213.5" y2="237" gradientUnits="userSpaceOnUse">
<stop stop-color="#B2E655"/>
<stop offset="1" stop-color="#77C61C"/>
</linearGradient>
<linearGradient id="paint2_linear_1_28" x1="2.17986e-06" y1="3" x2="213.5" y2="237" gradientUnits="userSpaceOnUse">
<stop stop-color="#B2E655"/>
<stop offset="1" stop-color="#77C61C"/>
</linearGradient>
</defs>
</svg>
