<svg width="136" height="44" viewBox="0 0 136 44" fill="none" xmlns="http://www.w3.org/2000/svg">
<path d="M28.5936 15.9411H33.355V25.702C33.355 26.6808 33.5269 27.4214 33.8708 27.924C34.2147 28.4266 34.6379 28.6779 35.1405 28.6779C35.6431 28.6779 36.0663 28.4266 36.4102 27.924C36.7541 27.4214 36.926 26.6808 36.926 25.702V15.9411H41.6874V25.702C41.6874 26.6014 41.5155 27.4479 41.1716 28.2414C40.8277 29.035 40.3516 29.736 39.7432 30.3444C39.1612 30.9263 38.4735 31.3893 37.6799 31.7331C36.8863 32.077 36.0399 32.249 35.1405 32.249C34.2411 32.249 33.3946 32.077 32.6011 31.7331C31.8075 31.3893 31.1065 30.9263 30.4981 30.3444C29.9162 29.736 29.4532 29.035 29.1094 28.2414C28.7655 27.4479 28.5936 26.6014 28.5936 25.702V15.9411ZM48.8156 31.8125H44.0542V8.79902H48.8156V31.8125ZM56.3328 31.8125H51.5714V8.79902H56.3328V31.8125ZM66.9985 32.249C65.8346 32.249 64.7369 32.0373 63.7052 31.6141C62.6736 31.1644 61.7742 30.5692 61.0071 29.8286C60.24 29.0615 59.6316 28.1753 59.1819 27.1701C58.7322 26.1385 58.5074 25.0407 58.5074 23.8768C58.5074 22.7129 58.7322 21.6284 59.1819 20.6232C59.6316 19.618 60.24 18.7318 61.0071 17.9647C61.7742 17.1976 62.6736 16.6024 63.7052 16.1792C64.7369 15.7295 65.8346 15.5047 66.9985 15.5047C68.0302 15.5047 69.0089 15.6766 69.9347 16.0205C70.8606 16.3644 71.6938 16.8405 72.4345 17.4489C73.1751 18.0573 73.7968 18.7848 74.2994 19.6312C74.802 20.4512 75.1458 21.3374 75.331 22.2897H70.5299C70.2654 21.3639 69.8157 20.61 69.1808 20.028C68.5724 19.4461 67.845 19.1551 66.9985 19.1551C66.4959 19.1551 66.0066 19.2873 65.5304 19.5519C65.0807 19.7899 64.684 20.1206 64.3401 20.5438C64.0227 20.9671 63.7581 21.4697 63.5465 22.0516C63.3613 22.6071 63.2688 23.2155 63.2688 23.8768C63.2688 24.5381 63.3613 25.1598 63.5465 25.7417C63.7581 26.2972 64.0227 26.7866 64.3401 27.2098C64.684 27.633 65.0807 27.9769 65.5304 28.2414C66.0066 28.4795 66.4959 28.5985 66.9985 28.5985C67.6863 28.5985 68.2947 28.4134 68.8237 28.0431C69.3528 27.6463 69.7892 27.1304 70.1331 26.4956L74.1803 28.3208C73.4397 29.5112 72.4345 30.4634 71.1648 31.1776C69.9215 31.8919 68.5328 32.249 66.9985 32.249ZM76.7579 23.8768C76.7579 22.7129 77.0092 21.6284 77.5118 20.6232C78.0408 19.618 78.7418 18.7318 79.6147 17.9647C80.4876 17.1976 81.5061 16.6024 82.67 16.1792C83.8603 15.7295 85.1168 15.5047 86.4394 15.5047C87.7885 15.5047 89.045 15.7295 90.2089 16.1792C91.3992 16.6024 92.4309 17.1976 93.3038 17.9647C94.1767 18.7318 94.8645 19.618 95.3671 20.6232C95.8696 21.6284 96.1209 22.7129 96.1209 23.8768C96.1209 25.0407 95.8696 26.1385 95.3671 27.1701C94.8645 28.1753 94.1767 29.0615 93.3038 29.8286C92.4309 30.5692 91.3992 31.1644 90.2089 31.6141C89.045 32.0373 87.7885 32.249 86.4394 32.249C85.1168 32.249 83.8603 32.0373 82.67 31.6141C81.5061 31.1644 80.4876 30.5692 79.6147 29.8286C78.7418 29.0615 78.0408 28.1753 77.5118 27.1701C77.0092 26.1385 76.7579 25.0407 76.7579 23.8768ZM81.5193 23.8768C81.5193 24.5381 81.6515 25.1598 81.9161 25.7417C82.1806 26.3237 82.5245 26.8395 82.9477 27.2892C83.3974 27.7124 83.9264 28.0563 84.5348 28.3208C85.1432 28.5589 85.7781 28.6779 86.4394 28.6779C87.1272 28.6779 87.762 28.5589 88.344 28.3208C88.9524 28.0563 89.4682 27.7124 89.8914 27.2892C90.3411 26.8395 90.6982 26.3237 90.9627 25.7417C91.2273 25.1598 91.3595 24.5381 91.3595 23.8768C91.3595 23.2155 91.2273 22.5939 90.9627 22.0119C90.6982 21.43 90.3411 20.9274 89.8914 20.5042C89.4682 20.0545 88.9524 19.7106 88.344 19.4725C87.762 19.208 87.1272 19.0757 86.4394 19.0757C85.7781 19.0757 85.1432 19.208 84.5348 19.4725C83.9264 19.7106 83.3974 20.0545 82.9477 20.5042C82.5245 20.9274 82.1806 21.43 81.9161 22.0119C81.6515 22.5939 81.5193 23.2155 81.5193 23.8768ZM111.523 24.1942V23.5594C111.497 22.951 111.351 22.3823 111.087 21.8532C110.849 21.2977 110.531 20.8216 110.135 20.4248C109.738 20.028 109.275 19.7238 108.746 19.5122C108.243 19.2741 107.701 19.1551 107.119 19.1551C106.484 19.1551 105.902 19.2741 105.373 19.5122C104.844 19.7503 104.381 20.0809 103.984 20.5042C103.614 20.9274 103.31 21.43 103.072 22.0119C102.86 22.5674 102.754 23.1891 102.754 23.8768C102.754 24.5381 102.86 25.1598 103.072 25.7417C103.31 26.3237 103.614 26.8262 103.984 27.2495C104.381 27.6727 104.844 28.0034 105.373 28.2414C105.902 28.4795 106.484 28.5985 107.119 28.5985C107.701 28.5985 108.243 28.4927 108.746 28.2811C109.275 28.0431 109.738 27.7256 110.135 27.3288C110.531 26.9321 110.849 26.4691 111.087 25.9401C111.351 25.3846 111.497 24.8026 111.523 24.1942ZM111.523 8.79902H116.285V31.8125H111.523V29.8286C110.809 30.5957 109.976 31.1909 109.024 31.6141C108.071 32.0373 107.04 32.249 105.929 32.249C104.791 32.249 103.733 32.0373 102.754 31.6141C101.802 31.1909 100.969 30.6089 100.255 29.8683C99.5404 29.1011 98.9849 28.215 98.5881 27.2098C98.1913 26.1782 97.993 25.0672 97.993 23.8768C97.993 22.6865 98.1913 21.5887 98.5881 20.5835C98.9849 19.5519 99.5404 18.6657 100.255 17.9251C100.969 17.1579 101.802 16.5628 102.754 16.1395C103.733 15.7163 104.791 15.5047 105.929 15.5047C107.04 15.5047 108.071 15.7163 109.024 16.1395C109.976 16.5628 110.809 17.1579 111.523 17.9251V8.79902ZM130.195 21.4961C129.878 20.8084 129.428 20.2529 128.846 19.8296C128.291 19.3799 127.669 19.1551 126.981 19.1551C126.293 19.1551 125.659 19.3799 125.077 19.8296C124.521 20.2529 124.085 20.8084 123.767 21.4961H130.195ZM126.981 32.249C125.817 32.249 124.719 32.0373 123.688 31.6141C122.656 31.1644 121.757 30.5692 120.99 29.8286C120.223 29.0615 119.614 28.1753 119.164 27.1701C118.715 26.1385 118.49 25.0407 118.49 23.8768C118.49 22.7129 118.715 21.6284 119.164 20.6232C119.614 19.618 120.223 18.7318 120.99 17.9647C121.757 17.1976 122.656 16.6024 123.688 16.1792C124.719 15.7295 125.817 15.5047 126.981 15.5047C128.145 15.5047 129.243 15.7295 130.274 16.1792C131.306 16.6024 132.205 17.1976 132.973 17.9647C133.74 18.7318 134.348 19.618 134.798 20.6232C135.247 21.6284 135.472 22.7129 135.472 23.8768H123.251C123.251 24.5381 123.344 25.1598 123.529 25.7417C123.741 26.2972 124.005 26.7866 124.323 27.2098C124.667 27.633 125.063 27.9769 125.513 28.2414C125.989 28.4795 126.479 28.5985 126.981 28.5985C127.669 28.5985 128.277 28.4134 128.806 28.0431C129.335 27.6463 129.772 27.1304 130.116 26.4956L134.163 28.3208C133.396 29.5112 132.377 30.4634 131.108 31.1776C129.864 31.8919 128.489 32.249 126.981 32.249Z" fill="white"/>
<path fill-rule="evenodd" clip-rule="evenodd" d="M30.2419 0.829839V-0.00195312C30.2419 -0.00195312 30.2625 0.321693 30.2419 0.829839Z" fill="url(#paint0_linear_166_500)"/>
<path d="M30.2419 -0.00195312H0V15.6434C0.553561 12.9485 3.54862 7.41868 11.1004 6.85929H24.954C24.954 6.85929 28.0568 6.85929 29.2368 4.80529C30.0122 3.45552 30.2025 1.80379 30.2419 0.829839V-0.00195312Z" fill="url(#paint1_linear_166_500)"/>
<path d="M1.17996 21.7617V30.24H2.0748C3.10234 30.1806 4.81901 29.8971 6.16201 28.7541C7.43354 27.672 7.78395 26.0874 7.8664 25.0371V23.9469V21.3684C7.8664 21.3684 7.8664 19.7514 8.87155 18.6589C9.8767 17.5663 11.1441 17.6537 11.1441 17.6537H17.5246H18.334C19.4794 17.6079 21.5627 17.3478 22.7252 16.1242C22.8661 15.9758 22.9936 15.8144 23.1088 15.6434C23.8898 14.4841 24.1071 12.8809 24.1608 11.8512L24.1673 10.8362H11.7122H11.6458C11.0724 10.8419 6.91369 10.9987 4.15171 14.2887C3.76591 14.7482 3.4302 15.2019 3.13807 15.6434C1.21094 18.5563 1.17996 20.7129 1.17996 21.7617Z" fill="url(#paint2_linear_166_500)"/>
<defs>
<linearGradient id="paint0_linear_166_500" x1="1.9053e-07" y1="0.246262" x2="18.6608" y2="20.6989" gradientUnits="userSpaceOnUse">
<stop stop-color="#B2E655"/>
<stop offset="1" stop-color="#77C61C"/>
</linearGradient>
<linearGradient id="paint1_linear_166_500" x1="1.9053e-07" y1="0.246262" x2="18.6608" y2="20.6989" gradientUnits="userSpaceOnUse">
<stop stop-color="#B2E655"/>
<stop offset="1" stop-color="#77C61C"/>
</linearGradient>
<linearGradient id="paint2_linear_166_500" x1="1.9053e-07" y1="0.246262" x2="18.6608" y2="20.6989" gradientUnits="userSpaceOnUse">
<stop stop-color="#B2E655"/>
<stop offset="1" stop-color="#77C61C"/>
</linearGradient>
</defs>
</svg>
